<svg width="17" height="17" viewBox="0 0 17 17" fill="none" xmlns="http://www.w3.org/2000/svg">
<path d="M6.375 6.90625C6.375 6.31955 5.8992 5.84375 5.3125 5.84375H4.78125C3.60752 5.84375 2.65625 6.79502 2.65625 7.96875V9.5625C2.65625 10.7362 3.60752 11.6875 4.78125 11.6875H5.3125C5.8992 11.6875 6.375 11.2117 6.375 10.625V6.90625ZM12.2188 11.6875C13.3925 11.6875 14.3438 10.7362 14.3438 9.5625V7.96875C14.3438 6.79502 13.3925 5.84375 12.2188 5.84375H11.6875C11.1008 5.84375 10.625 6.31955 10.625 6.90625V10.625C10.625 11.2117 11.1008 11.6875 11.6875 11.6875H12.2188ZM8.5 0C3.75793 0 0.15207 3.94553 0 8.5V9.03125C0 9.32477 0.237734 9.5625 0.53125 9.5625H1.0625C1.35602 9.5625 1.59375 9.32477 1.59375 9.03125V8.5C1.59375 4.69193 4.69193 1.59375 8.5 1.59375C12.3081 1.59375 15.4062 4.69193 15.4062 8.5H15.4023C15.4049 8.58068 15.4062 14.0024 15.4062 14.0024C15.4062 14.7777 14.7777 15.4062 14.0024 15.4062H10.625C10.625 14.526 9.91146 13.8125 9.03125 13.8125H7.96875C7.08854 13.8125 6.375 14.526 6.375 15.4062C6.375 16.2865 7.08854 17 7.96875 17H14.0024C15.6579 17 17 15.6579 17 14.0024V8.5C16.8479 3.94553 13.2421 0 8.5 0Z" fill="black"/>
</svg>
