<svg width="12" height="20" viewBox="0 0 12 20" fill="none" xmlns="http://www.w3.org/2000/svg">
<path d="M4.43625 9.3125C4.5675 8.82422 4.695 8 4.93125 8C5.2425 8.07031 5.29125 8.91406 5.62875 9.42969C5.80125 8.51172 5.8275 6.10547 6.1575 6.04297C6.495 6.01562 6.89625 8.64062 6.9825 9.07031C7.35375 9.23047 8.81625 9.32812 8.81625 9.32812C8.8875 9.61328 7.91625 9.625 7.31625 9.63281C7.14375 10.2109 7.11375 10.7148 6.88875 10.7266C6.7125 10.7344 6.58125 9.60156 6.2325 8.78906L5.88 11.3477C5.715 11.8555 5.29875 10.4688 5.05875 9.8125C4.935 9.80859 2.71875 9.75 3.27375 9.50781L4.43625 9.3125ZM8.55 17.5C9.345 17.5 9.345 16.25 8.55 16.25H3.45C2.655 16.25 2.655 17.5 3.45 17.5H8.55ZM7.65 20C8.445 20 8.445 18.75 7.65 18.75H4.35C3.555 18.75 3.555 20 4.35 20H7.65ZM8.9325 14.4727C9.0525 13.7344 9.1275 13.0508 9.37875 12.5664C9.675 11.9922 9.9825 11.4688 10.2788 10.9648C11.2013 9.38672 12 8.02734 12 6.0625C12 2.71875 9.3075 0 6 0C2.6925 0 0 2.71875 0 6.0625C0 8.02344 0.79875 9.38672 1.72125 10.9648C2.0175 11.4688 2.32125 11.9922 2.62125 12.5664C2.8725 13.0547 2.9475 13.7305 3.0675 14.4766C3.19875 15.2969 4.42125 15.0898 4.29 14.2773C4.155 13.4297 4.08 12.6875 3.71625 11.9883C2.49375 9.62891 1.2375 8.25391 1.2375 6.0625C1.2375 3.41016 3.375 1.25 6 1.25C8.625 1.25 10.7625 3.41016 10.7625 6.0625C10.7625 8.25391 9.50625 9.62891 8.28375 11.9844C7.92 12.6875 7.845 13.4453 7.71 14.2734C7.5825 15.0781 8.7975 15.3047 8.9325 14.4727Z" fill="black"/>
</svg>
