<svg width="19" height="17" viewBox="0 0 19 17" fill="none" xmlns="http://www.w3.org/2000/svg">
<path d="M18.7862 14.6098C19.395 15.6721 18.6308 17 17.4147 17H1.58512C0.366716 17 -0.39401 15.67 0.21366 14.6098L8.12854 0.796377C8.7377 -0.266422 10.2634 -0.264496 10.8715 0.796377L18.7862 14.6098ZM9.50001 11.7539C8.66199 11.7539 7.98265 12.4377 7.98265 13.2812C7.98265 14.1248 8.66199 14.8086 9.50001 14.8086C10.338 14.8086 11.0174 14.1248 11.0174 13.2812C11.0174 12.4377 10.338 11.7539 9.50001 11.7539ZM8.0594 6.2639L8.3041 10.7795C8.31554 10.9908 8.48911 11.1562 8.69933 11.1562H10.3007C10.5109 11.1562 10.6845 10.9908 10.6959 10.7795L10.9406 6.2639C10.953 6.03566 10.7724 5.84375 10.5454 5.84375H8.45461C8.22753 5.84375 8.04703 6.03566 8.0594 6.2639Z" fill="#D00000"/>
</svg>
