<svg width="22" height="20" viewBox="0 0 22 20" fill="none" xmlns="http://www.w3.org/2000/svg">
<path d="M0.785714 3.67347H21.2143C21.6482 3.67347 22 3.30801 22 2.85714V0.816327C22 0.365459 21.6482 0 21.2143 0H0.785714C0.351754 0 0 0.365459 0 0.816327V2.85714C0 3.30801 0.351754 3.67347 0.785714 3.67347ZM0.785714 11.8367H21.2143C21.6482 11.8367 22 11.4713 22 11.0204V8.97959C22 8.52872 21.6482 8.16327 21.2143 8.16327H0.785714C0.351754 8.16327 0 8.52872 0 8.97959V11.0204C0 11.4713 0.351754 11.8367 0.785714 11.8367ZM0.785714 20H21.2143C21.6482 20 22 19.6345 22 19.1837V17.1429C22 16.692 21.6482 16.3265 21.2143 16.3265H0.785714C0.351754 16.3265 0 16.692 0 17.1429V19.1837C0 19.6345 0.351754 20 0.785714 20Z" fill="#2C3338"/>
</svg>
